<svg version="1.2" xmlns="http://www.w3.org/2000/svg" viewBox="0 0 1600 956" width="1600" height="956">
	<title>provo-svg</title>
	<style>
		.s0 { fill: #03a1e2 } 
		.s1 { fill: #ffffff } 
		.s2 { fill: #faaa2d } 
		.s3 { fill: #82be4c } 
	</style>
	<path id="Shape 8" class="s0" d="m0 0h1600v956h-1600z"/>
	<circle id="Shape 1 copy" class="s1" cx="800" cy="480" r="353"/>
	<circle id="Shape 1" class="s2" cx="800" cy="478" r="310"/>
	<path id="Layer" class="s1" d="m799.6 477.6l-1.8-261.9 12.5 128.9 33-125.3-10.1 129.2 54.3-117.7-32.4 125.5 73.9-106.5-53.6 118 91.1-92-73.2 106.8 105.8-74.7-90.8 92.4 117.2-55.2-105.4 75.3 125-34.1-116.9 55.9 129-11.9-124.8 34.8 129.1 10.7-128.9 12.5 125.3 33-129.2-10 117.7 54.2-125.5-32.3 106.5 73.8-118-53.6 92.1 91.2-106.9-73.3 74.8 105.8-92.5-90.8 55.3 117.2-75.4-105.4 34.2 125-56-116.9 11.9 129-34.7-124.8-10.7 129.1-12.6-128.9-33 125.3 10.1-129.2-54.3 117.7 32.4-125.5-73.8 106.5 53.5-118-91.1 92.1 73.3-106.9-105.9 74.8 90.8-92.5-117.2 55.3 105.4-75.3-125 34.1 116.9-55.9-129 11.8 124.8-34.7-129.1-10.7 128.9-12.6-125.3-33 129.2 10.1-117.7-54.2 125.5 32.3-106.5-73.8 118 53.5-92-91.1 106.8 73.3-74.7-105.9 92.4 90.8-55.2-117.2 75.3 105.4-34.1-125 55.9 116.9-11.9-129 34.8 124.8 10.7-129.1 12.5 128.9z"/>
	<path id="Shape 7" class="s3" d="m487 493l29.1-15c0 0 159.5-63 167.5-67 8-4 23.1 0 23.1 0l31.1 38 180.6-113c0 0 160.3 122.2 177.5 137 17.3 14.8 16.1 23 16.1 23 0 0-5.5 45.3-13 75-7.6 29.7-24.1 56-24.1 56 0 0-4.7 8.8-10.1 16-5.3 7.2-41.7 21.1-110.3 20-68.6-1.1-96-0.6-168.5-21-72.6-20.4-128.1-25.4-154.5-27-26.5-1.6-75 10.2-88.3 14-13.3 3.8-17.7-2.7-23.1-13-5.4-10.3-10.5-24-19.1-53-8.5-29-11-60-11-60z"/>
	<path id="Shape 6" class="s1" d="m490 482l184-76c0 0 25.4-15 41 1 15.6 16 21 22 21 22l6 8 171-114c0 0 6-4 11 0 5 4 189 149 189 149l-1 24-201-146-160 109 24 30-49-34c0 0-3.2-11.8-7-18-3.8-6.2-13-15-13-15l-49 16-4-3-161 69-6-5-1-15z"/>
	<path id="Shape 5" class="s1" d="m1067 511c-11.8-2.1-28.8-8.9-60-24-31.2-15.1-46.6-17-56-17-9.4 0-16.7 2.4-18 5-1.3 2.6-4 1-4 1l-8-45-9-9 3-35 49 46c0 0-0.1 0.2 3-1 3.1-1.2 11 1 11 1l103 79c0 0-2.2 1.1-14-1z"/>
	<path id="Shape 4" class="s0" d="m1055 659c0 0-26 39.1-67 68-41 28.9-88.7 60.3-185 62-96.3 1.7-160.5-40.1-185-59-24.5-18.9-53.4-41.1-63-63-9.6-21.9 6.6-29.7 23-35 16.4-5.3 82.8-7.1 113-1 30.2 6.1 101.4 21.1 131 28 29.6 6.9 73.6 17.9 118 16 44.4-1.9 55.1-3.7 79-8 23.9-4.3 36-8 36-8z"/>
	<path id="Shape 3" class="s1" d="m949 712c0 0-7.8 4.7-23 7-15.2 2.3-39.4 6.1-52 6-12.6-0.1-63.8-4.1-77-6-13.2-1.9-53.8-8.7-72-11-18.2-2.3-63-8.1-72-8-9 0.1-34.4 2.3-44 4-9.6 1.7-20 5-20 5l-14-15c0 0 16.7-4.7 25-6 8.3-1.3 32.5-3.9 43-4 10.5-0.1 46.3 0.4 81 7 34.7 6.6 64.4 14.3 78 16 13.6 1.7 43.4 7.6 74 8 30.6 0.4 73-3 73-3z"/>
	<path id="Shape 2" class="s1" d="m520 616c0 0 59.7-11.5 113-11 53.3 0.5 105.7 11.2 154 22 48.3 10.8 105.8 24.4 151 24 45.2-0.4 79.6-8.1 98-13 18.4-4.9 43-13 43-13l-14 36-13-1c0 0-47.8 14.7-113 15-65.2 0.3-95.7-10.8-157-24-61.3-13.2-98.4-24.2-147-23-48.6 1.2-55.9 2.1-71 10-15.1 7.9-13.8 19.3-9 29 4.8 9.7 8 16 8 16l-10 5z"/>
</svg>